HIERARCHY
ROOT Hips
{
	OFFSET -21.947001 39.810204 44.525997
	CHANNELS 6 Xposition Yposition Zposition Zrotation Xrotation Yrotation
	JOINT Chest
	{
		OFFSET -0.201599 0.334099 6.453201
		CHANNELS 6 Xposition Yposition Zposition Zrotation Xrotation Yrotation
		JOINT Chest2
		{
			OFFSET 0.000000 0.000000 3.568001
			CHANNELS 6 Xposition Yposition Zposition Zrotation Xrotation Yrotation
			JOINT Neck
			{
				OFFSET 0.000000 0.000000 8.296402
				CHANNELS 6 Xposition Yposition Zposition Zrotation Xrotation Yrotation
				JOINT Head
				{
					OFFSET 0.000000 0.000000 2.173901
					CHANNELS 6 Xposition Yposition Zposition Zrotation Xrotation Yrotation
					End Site
					{
						OFFSET 0.000000 0.000000 7.891998
					}
				}
			}
			JOINT LeftCollar
			{
				OFFSET 1.927601 0.221401 6.049000
				CHANNELS 6 Xposition Yposition Zposition Zrotation Xrotation Yrotation
				JOINT LeftShoulder
				{
					OFFSET 4.959700 0.000000 0.000000
					CHANNELS 6 Xposition Yposition Zposition Zrotation Xrotation Yrotation
					JOINT LeftElbow
					{
						OFFSET 0.000000 0.000000 -8.654202
						CHANNELS 6 Xposition Yposition Zposition Zrotation Xrotation Yrotation
						JOINT LeftWrist
						{
							OFFSET 0.000000 0.000000 -13.864101
							CHANNELS 6 Xposition Yposition Zposition Zrotation Xrotation Yrotation
							End Site
							{
								OFFSET 0.000000 0.000000 -2.173901
							}
						}
					}
				}
			}
			JOINT RightCollar
			{
				OFFSET -3.155701 -0.764999 6.687801
				CHANNELS 6 Xposition Yposition Zposition Zrotation Xrotation Yrotation
				JOINT RightShoulder
				{
					OFFSET -3.592899 0.000000 0.000000
					CHANNELS 6 Xposition Yposition Zposition Zrotation Xrotation Yrotation
					JOINT RightElbow
					{
						OFFSET 0.000000 0.000000 -10.352398
						CHANNELS 6 Xposition Yposition Zposition Zrotation Xrotation Yrotation
						JOINT RightWrist
						{
							OFFSET 0.000000 0.000000 -12.750301
							CHANNELS 6 Xposition Yposition Zposition Zrotation Xrotation Yrotation
							End Site
							{
								OFFSET 0.000000 0.000000 -2.173901
							}
						}
					}
				}
			}
		}
	}
	JOINT LeftHip
	{
		OFFSET 2.460600 -0.518101 -2.735500
		CHANNELS 6 Xposition Yposition Zposition Zrotation Xrotation Yrotation
		JOINT LeftKnee
		{
			OFFSET 0.000000 -0.000004 -17.005899
			CHANNELS 6 Xposition Yposition Zposition Zrotation Xrotation Yrotation
			JOINT LeftAnkle
			{
				OFFSET 0.000000 0.000000 -19.194401
				CHANNELS 6 Xposition Yposition Zposition Zrotation Xrotation Yrotation
				End Site
				{
					OFFSET 0.000000 -8.134600 0.000000
				}
			}
		}
	}
	JOINT RightHip
	{
		OFFSET -3.115499 -0.679600 -2.320301
		CHANNELS 6 Xposition Yposition Zposition Zrotation Xrotation Yrotation
		JOINT RightKnee
		{
			OFFSET 0.000000 -0.000004 -17.680401
			CHANNELS 6 Xposition Yposition Zposition Zrotation Xrotation Yrotation
			JOINT RightAnkle
			{
				OFFSET 0.000000 0.000000 -16.993797
				CHANNELS 6 Xposition Yposition Zposition Zrotation Xrotation Yrotation
				End Site
				{
					OFFSET 0.000000 -8.842300 0.000000
				}
			}
		}
	}
}
MOTION
Frames: 5
Frame Time: 0.041667
-18.782696 28.193710 38.970993 -0.313852 8.697341 -20.490644 -0.201602 0.334094 6.453200 9.312615 6.273963 -19.404636 0.000002 -0.000004 3.568003 -9.946565 -6.140973 -2.503415 0.000006 -0.000004 8.296402 61.856543 -14.901723 12.078646 -0.000001 0.000005 2.173908 3.557101 -10.227599 17.480556 1.927602 0.221401 6.049004 -9.165381 -7.246377 5.330523 4.959700 0.000000 0.000005 29.494659 1.641830 -102.546432 0.000006 -0.000000 -8.654199 31.229565 -3.729098 1.307841 -0.000003 -0.000001 -13.864102 680.423937 -180.372264 177.458574 -3.155705 -0.765001 6.687807 32.106568 -1.150776 10.356431 -3.592906 0.000000 0.000002 32.183237 53.774609 -27.370282 -0.000003 -0.000005 -10.352397 -127.803467 -132.420921 -142.081021 0.000012 -0.000002 -12.750298 -590.122334 9.071888 80.253555 2.460597 -0.518098 -2.735500 29.322945 -14.612131 26.947077 -0.000002 -0.000003 -17.005899 -67.287861 26.477175 42.236356 -0.000000 0.000004 -19.194399 51.554999 6.809356 20.376780 -3.115494 -0.679605 -2.320303 -137.104655 -31.519380 -62.511974 0.000000 -0.000007 -17.680401 -34.059828 -20.136680 1.645539 -0.000006 0.000000 -16.993795 219.417218 56.466939 -86.199876
-18.763700 28.210106 38.973091 0.154563 8.721976 -20.505591 -0.201597 0.334100 6.453203 8.914070 6.192194 -19.359854 0.000000 0.000003 3.567988 -9.760166 -6.178823 -2.444034 0.000002 0.000002 8.296404 61.967800 -14.903963 11.769611 -0.000003 0.000005 2.173906 4.973523 -9.721943 15.715702 1.927598 0.221407 6.048994 -9.241825 -7.168017 5.208301 4.959704 0.000004 0.000003 29.626656 1.704104 -102.520791 0.000000 -0.000005 -8.654206 31.594778 -3.748941 1.331468 0.000003 0.000002 -13.864093 680.119310 -180.300014 177.419655 -3.155702 -0.764996 6.687807 32.205257 -1.011757 10.078995 -3.592899 -0.000000 0.000004 31.735159 54.032913 -26.790326 0.000003 0.000000 -10.352394 -127.737624 -132.086829 -142.107604 0.000001 -0.000003 -12.750296 -589.822352 9.119838 80.272140 2.460599 -0.518098 -2.735502 29.422198 -14.658056 27.124134 -0.000001 -0.000001 -17.005907 -67.420497 26.705492 42.198169 -0.000009 0.000003 -19.194401 51.273667 6.913014 19.890500 -3.115496 -0.679596 -2.320303 -136.845299 -31.940338 -62.121144 0.000002 -0.000008 -17.680403 -34.459749 -20.323742 1.594203 -0.000009 -0.000004 -16.993797 218.779114 56.754689 -86.108680
-18.743202 28.226408 38.977695 0.556601 8.673068 -20.407996 -0.201600 0.334102 6.453195 8.593776 6.286372 -19.396480 0.000001 0.000008 3.567995 -9.534537 -6.265220 -2.369213 -0.000001 -0.000002 8.296400 62.158458 -14.996247 11.491119 -0.000005 -0.000003 2.173898 6.218016 -9.143570 13.934836 1.927598 0.221405 6.048997 -9.313905 -6.988185 5.193668 4.959706 0.000001 -0.000003 29.645944 1.429263 -102.597282 -0.000004 0.000000 -8.654198 31.387697 -3.718905 1.314109 -0.000008 -0.000004 -13.864096 680.399895 -180.126855 177.867401 -3.155708 -0.764995 6.687797 32.204058 -0.938561 9.545548 -3.592897 0.000002 0.000000 31.165347 54.231159 -26.005626 0.000005 -0.000008 -10.352398 -127.627795 -132.028035 -142.031694 0.000002 -0.000003 -12.750297 -589.863169 9.213561 80.257052 2.460599 -0.518094 -2.735501 29.565778 -14.639324 27.117468 -0.000004 -0.000004 -17.005894 -67.507083 26.879581 42.119256 -0.000003 0.000005 -19.194401 50.931771 7.057167 19.337420 -3.115489 -0.679600 -2.320301 -136.165354 -32.646043 -61.316971 0.000003 -0.000011 -17.680403 -34.661765 -20.382563 1.653416 -0.000006 -0.000008 -16.993792 217.788327 57.338270 -86.100811
-18.717999 28.243904 38.989594 1.010274 8.628365 -20.582191 -0.201593 0.334097 6.453200 8.218016 6.402132 -19.230647 -0.000001 0.000007 3.567993 -9.313383 -6.294981 -2.274131 -0.000006 -0.000008 8.296402 62.233426 -15.065425 11.375500 0.000001 -0.000000 2.173900 7.789327 -8.683625 11.698939 1.927595 0.221405 6.049001 -9.292945 -6.942543 5.143378 4.959702 -0.000005 0.000000 29.739764 1.707424 -102.612418 0.000011 0.000000 -8.654202 31.300370 -3.733767 1.280537 0.000003 0.000004 -13.864096 680.961555 -180.114684 177.805930 -3.155707 -0.765007 6.687808 32.737650 -0.327051 9.395119 -3.592902 0.000004 0.000001 29.932297 53.894581 -25.262264 -0.000004 -0.000007 -10.352398 -127.469047 -131.895242 -141.930907 0.000003 -0.000006 -12.750295 -589.670230 9.214704 80.115387 2.460603 -0.518098 -2.735505 29.731912 -14.484934 27.369418 -0.000001 -0.000003 -17.005905 -67.350235 27.204493 41.939199 -0.000004 -0.000001 -19.194403 50.402800 7.237703 18.521487 -3.115487 -0.679600 -2.320297 -135.526594 -33.625933 -60.640434 -0.000001 -0.000007 -17.680407 -35.023998 -20.453946 1.654154 -0.000009 -0.000009 -16.993793 216.748035 57.904042 -86.193975
-18.674896 28.279902 38.993393 1.536421 8.400413 -20.694889 -0.201601 0.334097 6.453204 7.778240 6.727679 -19.246927 -0.000002 0.000003 3.567993 -9.035317 -6.394906 -2.168183 0.000009 -0.000004 8.296398 62.116623 -15.129414 11.371958 0.000001 0.000002 2.173907 7.599879 -8.691971 11.887393 1.927604 0.221407 6.049001 -9.182894 -6.989783 5.126331 4.959710 0.000007 0.000008 29.594042 1.886865 -102.631365 -0.000004 -0.000005 -8.654199 31.509401 -3.653915 1.241064 0.000002 -0.000007 -13.864096 680.939753 -180.071654 177.672208 -3.155700 -0.764995 6.687810 33.093896 0.101254 9.616120 -3.592905 -0.000004 -0.000009 29.503876 53.387453 -25.300114 -0.000004 -0.000003 -10.352400 -127.342252 -131.999061 -141.800478 0.000007 -0.000003 -12.750299 -589.712195 9.333826 80.186592 2.460598 -0.518100 -2.735501 28.779385 -14.412983 27.369184 -0.000002 0.000000 -17.005899 -66.616638 27.130457 41.504987 -0.000003 0.000000 -19.194401 50.229385 7.400077 18.345352 -3.115500 -0.679605 -2.320311 -136.754293 -32.904867 -61.018677 0.000000 -0.000005 -17.680407 -33.547799 -20.129667 2.047048 -0.000000 -0.000010 -16.993788 216.067994 58.478837 -86.399741
